<?xml version="1.0" standalone="no"?>
<!DOCTYPE svg PUBLIC "-//W3C//DTD SVG 20010904//EN"
 "http://www.w3.org/TR/2001/REC-SVG-20010904/DTD/svg10.dtd">
<svg version="1.0" xmlns="http://www.w3.org/2000/svg"
 width="2500.000000pt" height="2500.000000pt" viewBox="0 0 2500.000000 2500.000000"
 preserveAspectRatio="xMidYMid meet">
<metadata>
Created by potrace 1.16, written by Peter Selinger 2001-2019
</metadata>
<g transform="translate(0.000000,2500.000000) scale(0.100000,-0.100000)"
fill="#000000" stroke="none">
<path d="M2586 24249 c-358 -29 -716 -165 -1006 -380 -102 -76 -280 -246 -363
-349 -245 -303 -394 -682 -427 -1084 -14 -180 -14 -19592 0 -19771 31 -381
160 -727 381 -1025 76 -102 246 -280 349 -363 303 -245 683 -394 1084 -427
180 -14 19722 -14 19902 0 401 33 781 182 1084 427 103 83 273 261 349 363
221 298 350 644 381 1025 14 179 14 19591 0 19771 -33 401 -182 781 -427 1084
-83 103 -261 273 -363 349 -298 221 -644 350 -1025 381 -155 12 -19766 12
-19919 -1z m20029 -351 c357 -70 625 -205 868 -438 263 -251 432 -580 489
-950 19 -126 19 -19794 0 -19920 -57 -370 -226 -699 -489 -950 -157 -150 -320
-256 -524 -340 -90 -38 -265 -84 -379 -102 -126 -19 -19924 -19 -20050 0 -114
18 -289 64 -379 102 -204 84 -367 190 -524 340 -263 251 -432 580 -489 950
-19 126 -19 19794 0 19920 18 114 64 289 102 379 84 204 190 367 340 524 280
293 659 471 1070 500 25 2 4509 3 9965 2 9007 -1 9927 -2 10000 -17z"/>
<path d="M2340 21320 l0 -1260 228 0 c125 0 259 -5 297 -10 76 -11 174 -52
230 -97 106 -83 177 -313 204 -662 7 -90 11 -820 11 -2185 0 -2165 0 -2154
-45 -2419 -64 -370 -160 -682 -271 -880 -135 -239 -346 -460 -587 -616 l-67
-43 0 -78 0 -78 47 -28 c182 -104 403 -309 512 -473 85 -129 127 -215 205
-424 96 -257 130 -394 165 -677 41 -328 43 -425 39 -3180 -4 -2440 -5 -2654
-21 -2765 -38 -264 -106 -464 -179 -531 -98 -88 -218 -116 -530 -122 l-238 -4
0 -1134 0 -1134 2408 2 2407 3 3 1132 2 1133 -48 0 c-63 0 -154 24 -215 57
-144 79 -246 297 -302 648 -46 282 -47 332 -52 1450 l-4 1070 145 370 c257
654 804 2026 810 2032 3 4 9 3 13 0 3 -4 165 -706 359 -1560 193 -853 383
-1680 422 -1837 218 -879 305 -1404 282 -1697 -18 -237 -77 -387 -179 -457
-76 -53 -136 -69 -281 -75 l-135 -6 -3 -1132 -2 -1133 5400 0 5400 0 0 1135 0
1134 -377 3 -378 3 -56 28 c-118 58 -220 218 -258 404 -64 310 -71 611 -71
2956 l0 2027 303 0 c783 1 1380 82 1932 264 717 237 1275 633 1711 1216 315
421 626 1031 807 1585 300 918 494 1800 576 2620 36 362 43 580 38 1170 -4
485 -7 586 -26 754 -44 399 -113 789 -206 1161 -170 682 -505 1380 -944 1970
-103 140 -440 480 -616 623 -203 165 -374 283 -520 361 -589 314 -1281 520
-1975 590 -85 8 -175 18 -200 21 -63 9 -3423 23 -7256 31 l-3241 6 -6 -23 c-8
-30 -9 -2446 -1 -2475 5 -20 14 -22 132 -27 70 -3 149 -12 175 -20 128 -40
179 -137 156 -292 -14 -92 -91 -324 -168 -505 -34 -80 -248 -620 -475 -1200
-908 -2314 -1248 -3176 -1270 -3218 -14 -24 -15 214 -16 2094 0 1369 4 2168
10 2255 37 478 150 738 365 840 73 34 158 49 288 49 l97 0 0 1260 0 1260
-2480 0 -2480 0 0 -1260z m10954 30 c168 -20 247 -62 454 -244 70 -62 188
-162 262 -223 74 -61 156 -133 181 -159 101 -106 165 -211 176 -289 3 -25 11
-45 17 -45 20 0 154 -68 214 -108 77 -53 181 -165 231 -249 48 -82 96 -222
110 -322 7 -54 5 -193 -9 -525 -11 -248 -22 -464 -26 -481 -25 -132 -101 -260
-171 -288 -176 -70 -538 -62 -888 20 -77 18 -126 36 -163 59 -29 19 -54 34
-56 34 -3 0 -19 -24 -36 -52 -48 -78 -150 -206 -240 -301 l-80 -85 36 -63
c197 -347 423 -910 620 -1543 74 -240 87 -273 191 -521 74 -175 186 -469 268
-700 l67 -190 76 -56 c153 -113 420 -278 577 -357 57 -28 66 -30 146 -25 46 3
190 0 319 -6 l234 -12 66 -36 66 -36 791 611 790 611 7 98 c12 181 12 179 62
193 42 12 44 14 44 51 0 28 -4 39 -15 39 -18 0 -34 36 -27 62 2 10 13 23 23
29 18 9 19 62 19 1914 l0 1905 195 0 c221 0 313 -14 407 -60 236 -117 412
-351 580 -770 348 -865 461 -2084 327 -3515 -38 -408 -154 -1049 -250 -1380
-200 -690 -440 -1064 -764 -1192 -67 -26 -79 -27 -282 -31 l-213 -4 0 991 0
990 158 134 c86 74 180 156 207 182 110 105 220 159 388 189 106 20 171 50
219 104 47 52 56 69 77 155 l19 72 88 0 c109 1 153 15 197 64 41 46 52 94 37
166 -11 53 -58 131 -84 141 -8 3 -33 0 -56 -6 -32 -9 -40 -15 -35 -28 16 -43
17 -104 1 -145 -33 -87 -97 -120 -230 -121 l-88 -1 -17 -65 c-42 -169 -128
-238 -343 -275 -145 -25 -230 -71 -362 -195 -55 -52 -626 -535 -1615 -1366 -2
-2 4 -15 13 -28 51 -79 -21 -206 -117 -206 -20 0 -28 -8 -41 -44 -20 -52 -69
-81 -120 -73 -31 5 -32 4 -48 -51 -25 -85 -37 -97 -95 -96 -26 1 -72 11 -100
22 l-53 20 0 -42 c0 -64 -31 -89 -103 -84 l-55 3 -395 -332 c-381 -322 -395
-334 -408 -380 -41 -147 18 -286 149 -350 83 -40 170 -37 322 11 174 55 242
46 274 -34 21 -52 21 -170 0 -241 -50 -170 -201 -327 -399 -414 -33 -15 -53
-30 -50 -37 2 -7 122 -368 266 -803 143 -434 277 -825 295 -869 85 -194 141
-450 151 -691 5 -123 3 -151 -16 -225 -28 -111 -114 -284 -191 -385 -76 -99
-244 -429 -265 -518 -8 -34 -35 -199 -60 -367 -90 -602 -137 -831 -225 -1105
-99 -309 -189 -706 -267 -1183 l-38 -230 -87 -38 c-81 -35 -102 -54 -79 -69
14 -8 76 -174 107 -285 31 -109 61 -158 139 -228 70 -62 173 -121 376 -213
139 -62 169 -81 229 -136 38 -35 92 -98 119 -139 45 -66 49 -77 41 -106 -63
-217 -429 -278 -913 -154 -149 39 -235 70 -340 122 -108 55 -151 90 -200 163
-49 74 -142 169 -232 236 -58 43 -276 177 -281 172 -2 -1 53 -114 122 -249
l125 -247 77 -59 c152 -116 255 -182 282 -182 84 0 206 -66 248 -134 20 -34
39 -49 78 -65 84 -35 96 -97 31 -158 -50 -48 -402 -156 -642 -197 -384 -66
-742 -33 -973 89 -61 32 -64 33 -99 18 -75 -31 -306 -12 -483 40 -42 12 -45
15 -48 50 l-3 37 -100 30 -99 31 0 77 c0 215 -38 493 -84 616 -20 53 -24 87
-30 271 -16 500 -122 1996 -186 2630 -46 461 3 1096 125 1618 l34 147 -10 148
c-25 381 -202 1543 -261 1707 -30 85 -30 166 1 199 l24 25 -83 113 c-46 62
-110 150 -143 195 l-60 81 -68 7 -69 7 0 43 c0 67 -45 298 -107 545 -55 223
-56 226 -56 375 0 83 5 186 12 230 10 71 63 767 58 771 -1 1 -33 21 -72 45
-165 102 -361 255 -546 425 -76 71 -117 99 -195 138 -114 56 -169 112 -229
232 -38 77 -75 206 -75 264 0 22 -13 63 -32 100 l-33 63 1 186 c1 185 18 410
53 694 18 144 18 150 0 220 -27 103 -57 263 -68 361 l-10 84 80 233 c66 197
79 244 79 299 0 100 26 250 62 357 37 112 47 127 333 516 464 631 488 660 699
854 l121 112 100 252 101 253 44 15 c49 15 315 21 385 9 33 -6 45 -4 68 15
l27 22 -29 57 c-42 83 -55 176 -47 348 3 80 13 181 21 225 13 74 13 81 -3 96
-9 9 -187 159 -394 333 -269 226 -378 323 -378 338 0 28 52 73 106 92 159 54
518 45 964 -24 68 -11 124 -18 125 -17 12 38 118 294 146 352 44 93 135 210
198 257 85 62 124 70 326 63 99 -4 216 -11 259 -15z"/>
<path d="M13877 16271 c-12 -61 -7 -287 8 -377 17 -98 32 -153 64 -232 12 -29
21 -72 21 -96 0 -43 1 -44 61 -80 33 -20 62 -36 64 -36 4 0 -21 129 -60 315
-40 185 -93 382 -127 475 -25 64 -25 64 -31 31z"/>
<path d="M13950 14631 c-70 -6 -81 -10 -142 -54 -134 -95 -254 -260 -347 -476
-67 -156 -108 -226 -178 -302 -69 -74 -128 -116 -208 -146 l-60 -23 55 6 c185
21 384 137 496 287 26 36 83 127 127 203 44 77 100 168 126 204 65 92 193 223
264 270 l59 40 -58 -2 c-33 -1 -93 -4 -134 -7z"/>
<path d="M14680 13895 c0 -234 -8 -230 172 -104 73 51 137 96 142 100 5 4 -5
20 -22 34 -17 14 -46 48 -63 76 l-32 49 -64 0 c-35 0 -79 7 -98 14 l-35 15 0
-184z"/>
<path d="M11533 12972 c-137 -206 -186 -532 -129 -857 13 -74 82 -280 156
-470 l31 -80 217 -175 c230 -186 282 -242 282 -305 0 -44 -40 -91 -89 -106
-32 -10 -43 -8 -78 9 -22 12 -53 31 -69 44 -65 53 -65 53 -30 -23 96 -212 215
-428 304 -552 173 -242 451 -399 701 -396 73 1 80 2 48 10 -57 13 -129 53
-196 109 -46 38 -85 87 -155 193 -386 588 -681 1224 -770 1659 -48 233 -66
485 -47 647 l10 95 -46 55 c-25 31 -60 86 -77 123 l-32 67 -31 -47z"/>
<path d="M13535 10198 c-32 -185 -185 -1310 -185 -1365 0 -246 -67 -521 -146
-604 l-26 -27 41 -60 c62 -91 85 -148 85 -217 1 -57 -3 -66 -63 -164 -71 -116
-115 -215 -126 -278 -5 -35 0 -64 29 -151 49 -147 65 -233 72 -397 6 -123 -1
-252 -22 -420 -2 -22 147 408 332 955 l337 995 6 161 6 161 37 55 c47 71 119
144 214 215 41 31 73 62 70 68 -43 114 -54 198 -33 249 12 28 10 30 -61 100
-157 151 -248 307 -270 463 -7 44 -12 50 -149 170 l-142 123 -6 -32z"/>
</g>
</svg>
