<?xml version="1.0" encoding="UTF-8" standalone="no"?>
<!-- Created with Inkscape (http://www.inkscape.org/) -->

<svg
   xmlns:dc="http://purl.org/dc/elements/1.1/"
   xmlns:cc="http://creativecommons.org/ns#"
   xmlns:rdf="http://www.w3.org/1999/02/22-rdf-syntax-ns#"
   xmlns:svg="http://www.w3.org/2000/svg"
   xmlns="http://www.w3.org/2000/svg"
   xmlns:sodipodi="http://sodipodi.sourceforge.net/DTD/sodipodi-0.dtd"
   xmlns:inkscape="http://www.inkscape.org/namespaces/inkscape"
   width="367.14001"
   height="367.13998"
   viewBox="0 0 367.14001 367.13998"
   version="1.1"
   id="svg2216"
   inkscape:version="0.92.3 (2405546, 2018-03-11)"
   sodipodi:docname="circle.svg">
  <defs
     id="defs2210" />
  <sodipodi:namedview
     id="base"
     pagecolor="#ffffff"
     bordercolor="#666666"
     borderopacity="1.0"
     inkscape:pageopacity="0.0"
     inkscape:pageshadow="2"
     inkscape:zoom="1.4"
     inkscape:cx="128.40776"
     inkscape:cy="196.06567"
     inkscape:document-units="px"
     inkscape:current-layer="layer1"
     showgrid="false"
     units="px"
     inkscape:window-width="1280"
     inkscape:window-height="737"
     inkscape:window-x="-8"
     inkscape:window-y="-8"
     inkscape:window-maximized="1"
     fit-margin-top="10"
     fit-margin-left="10"
     fit-margin-bottom="10"
     fit-margin-right="10"
     inkscape:showpageshadow="false"
     scale-x="1" />
  <metadata
     id="metadata2213">
    <rdf:RDF>
      <cc:Work
         rdf:about="">
        <dc:format>image/svg+xml</dc:format>
        <dc:type
           rdf:resource="http://purl.org/dc/dcmitype/StillImage" />
        <dc:title></dc:title>
      </cc:Work>
    </rdf:RDF>
  </metadata>
  <g
     inkscape:label="Layer 1"
     inkscape:groupmode="layer"
     id="layer1"
     transform="translate(283.10502,-116.23671)">
    

<g
       aria-label="D"
       transform="scale(0.83731883,1.1942882)"
       style="font-style:normal;font-variant:normal;font-weight:normal;font-stretch:normal;font-size:66.7964859px;line-height:1.25;font-family:'Open Sans';-inkscape-font-specification:'Open Sans, Normal';font-variant-ligatures:normal;font-variant-caps:normal;font-variant-numeric:normal;font-feature-settings:normal;text-align:start;letter-spacing:0px;word-spacing:0px;writing-mode:lr-tb;text-anchor:start;fill:#000000;fill-opacity:1;stroke:none;stroke-width:1.7891916"
       id="text839">
      <path
         style="font-style:normal;font-variant:normal;font-weight:normal;font-stretch:normal;font-size:171.7624054px;font-family:'Liberation Serif';-inkscape-font-specification:'Liberation Serif';fill:#000000;fill-opacity:1;stroke-width:1.7891916"
         d="M 32.71875 82.037109 L 32.71875 89.349609 L 44.796875 91.953125 L 44.796875 206.33984 L 32.71875 209.04492 L 32.71875 216.35547 L 48.871094 216.35547 L 55.332031 216.35547 C 57.860115 216.42221 60.526956 216.48984 63.335938 216.55664 C 66.144924 216.62344 69.025182 216.65625 71.974609 216.65625 C 74.924043 216.72305 77.731856 216.75586 80.400391 216.75586 C 88.593254 216.75586 95.616706 215.25489 101.46875 212.25 C 107.36762 209.24512 112.21373 204.8368 116.00586 199.02734 C 119.79798 193.21789 122.5823 186.07422 124.36133 177.59375 C 126.14035 169.11328 127.03125 159.39647 127.03125 148.44531 C 127.03125 136.09187 125.86035 125.70861 123.51953 117.29492 C 121.22553 108.81445 117.92429 101.97019 113.61719 96.761719 C 109.31008 91.553245 104.08997 87.813327 97.957031 85.542969 C 91.870901 83.205826 85.035427 82.037109 77.451172 82.037109 L 32.71875 82.037109 z M 66.847656 93.054688 L 72.044922 93.054688 C 77.194723 93.054687 81.735395 94.024447 85.667969 95.960938 C 89.600548 97.830643 92.901783 100.96783 95.570312 105.375 C 98.238848 109.78217 100.2517 115.59295 101.60938 122.80469 C 103.01387 129.94964 103.7168 138.76237 103.7168 149.24609 C 103.7168 159.12884 103.29387 167.6441 102.45117 174.78906 C 101.65529 181.86724 100.29838 187.70891 98.378906 192.31641 C 96.459431 196.92391 93.931619 200.32962 90.794922 202.5332 C 87.658225 204.67002 83.74804 205.73828 79.066406 205.73828 L 75.486328 205.73828 C 74.503187 205.67153 73.541798 205.60586 72.605469 205.53906 C 71.715957 205.40554 70.803516 205.30508 69.867188 205.23828 C 68.977676 205.1715 67.971249 205.07105 66.847656 204.9375 L 66.847656 93.054688 z M 150.625 131.51953 L 138.7832 149.46484 L 150.625 167.41016 L 162.4668 149.46484 L 150.625 131.51953 z "
         transform="matrix(1.1942882,0,0,0.83731883,-299.72285,124.83788)"
         id="path831" />
    </g>



<g
       aria-label="E"
       transform="scale(0.83731883,1.1942882)"
       style="font-style:normal;font-variant:normal;font-weight:normal;font-stretch:normal;font-size:66.79557037px;line-height:1.25;font-family:'Open Sans';-inkscape-font-specification:'Open Sans, Normal';font-variant-ligatures:normal;font-variant-caps:normal;font-variant-numeric:normal;font-feature-settings:normal;text-align:start;letter-spacing:0px;word-spacing:0px;writing-mode:lr-tb;text-anchor:start;fill:#000000;fill-opacity:1;stroke:none;stroke-width:1.78916705"
       id="text837">
      <path
         d="m -88.411358,300.00602 14.42516,-2.26441 v -95.77635 l -14.42516,-2.18055 V 193.6624 H 7.3649926 v 28.59872 H -0.26692322 L -2.9506738,204.06194 q -2.6837507,-0.33547 -6.5416422,-0.58708 -3.774024,-0.2516 -7.715783,-0.33546 -3.941759,-0.16774 -7.464182,-0.16774 -3.522422,-0.0839 -5.451368,-0.0839 h -17.444379 v 41.26267 h 29.43739 l 2.599883,-12.41235 h 7.4641815 v 34.55329 h -7.4641815 l -2.599883,-12.74781 h -29.43739 v 43.35934 h 21.218403 q 5.199767,0 9.812464,-0.0839 4.612696,-0.16774 8.3028531,-0.33547 3.6901571,-0.16774 6.2900405,-0.41934 2.68375067,-0.2516 3.9417588,-0.5032 l 4.7804308,-20.79907 h 7.6319158 l -1.593477,31.36634 H -88.411358 Z"
         style="font-style:normal;font-variant:normal;font-weight:normal;font-stretch:normal;font-size:171.76004028px;font-family:'Liberation Serif';-inkscape-font-specification:'Liberation Serif';fill:#000000;fill-opacity:1;stroke-width:1.78916705"
         id="path827" />
    </g>




    <path
       style="fill:#000000;fill-opacity:1;fill-rule:evenodd;stroke-width:1.06112659"
       d="m -99.535018,126.23671 a 173.57001,173.57001 0 0 0 -173.570002,173.56998 173.57001,173.57001 0 0 0 173.570002,173.56999 173.57001,173.57001 0 0 0 173.57,-173.56999 173.57001,173.57001 0 0 0 -173.57,-173.56998 z m 0,10.84808 A 162.72188,162.72188 0 0 1 63.186852,299.80669 162.72188,162.72188 0 0 1 -99.535018,462.52856 162.72188,162.72188 0 0 1 -262.25689,299.80669 162.72188,162.72188 0 0 1 -99.535018,137.08479 Z"
       id="path12"
       inkscape:connector-curvature="0" />
  </g>
</svg>
