<?xml version="1.0" standalone="no"?>
<!DOCTYPE svg PUBLIC "-//W3C//DTD SVG 20010904//EN"
 "http://www.w3.org/TR/2001/REC-SVG-20010904/DTD/svg10.dtd">
<svg version="1.0" xmlns="http://www.w3.org/2000/svg"
 width="1024.000000pt" height="468.000000pt" viewBox="0 0 1024.000000 468.000000"
 preserveAspectRatio="xMidYMid meet">
<metadata>
Created by potrace 1.16, written by Peter Selinger 2001-2019
</metadata>
<g transform="translate(0.000000,468.000000) scale(0.100000,-0.100000)"
fill="#000000" stroke="none">
<path d="M1815 3735 c-129 -33 -267 -83 -315 -115 -14 -9 -47 -31 -73 -48 -26
-18 -51 -32 -56 -32 -5 0 -48 -40 -97 -88 -179 -177 -252 -366 -227 -585 7
-53 20 -105 37 -140 14 -31 26 -59 26 -64 0 -7 45 -79 67 -108 5 -6 21 -28 37
-50 27 -37 164 -175 371 -373 170 -163 261 -283 336 -440 56 -118 81 -238 82
-392 0 -283 -93 -480 -269 -570 -69 -35 -69 -35 -204 -35 l-135 0 -68 35 c-69
37 -177 132 -177 157 0 8 -10 33 -22 56 -20 38 -23 56 -23 178 0 82 4 142 11
150 6 8 19 36 28 62 20 52 120 161 160 172 11 4 40 15 64 26 43 20 98 33 185
44 26 3 47 10 47 15 0 18 -50 106 -72 127 -13 12 -50 34 -83 50 -56 26 -69 28
-190 28 -121 0 -137 -2 -227 -33 -54 -19 -100 -38 -104 -43 -3 -5 -22 -18 -42
-29 -34 -18 -87 -64 -138 -121 -35 -39 -96 -170 -110 -234 -16 -74 -18 -241
-3 -321 18 -97 88 -230 158 -299 75 -74 102 -91 257 -161 17 -7 55 -18 85 -24
30 -6 81 -17 114 -25 114 -27 305 -38 423 -26 216 22 426 76 525 134 25 15 48
27 50 27 9 0 110 69 145 97 162 136 253 283 307 498 24 95 28 130 29 255 0
125 -4 160 -28 260 -54 224 -143 377 -327 562 -65 65 -122 118 -128 118 -6 0
-20 14 -33 30 -12 17 -27 30 -33 30 -6 0 -18 8 -26 18 -9 9 -40 37 -70 62
-114 94 -279 280 -279 315 0 5 -6 16 -14 24 -21 24 -44 106 -57 201 -9 71 -9
99 5 169 13 72 22 93 58 140 61 77 136 119 247 137 76 12 99 12 170 0 70 -12
88 -20 129 -54 26 -22 59 -62 72 -89 22 -42 25 -61 25 -148 0 -89 -3 -107 -29
-165 -33 -73 -65 -119 -116 -166 -34 -32 -35 -32 -16 -53 45 -49 148 -79 221
-63 79 17 123 40 177 90 72 67 114 161 123 272 14 190 -28 325 -134 422 -89
81 -151 107 -376 158 -22 5 -107 9 -190 9 -137 0 -161 -3 -280 -34z"/>
<path d="M5445 3603 c-38 -7 -115 -23 -170 -35 l-99 -23 -13 -80 c-7 -44 -19
-119 -25 -168 l-12 -87 -38 -7 c-44 -7 -43 -6 -52 -55 l-7 -38 42 0 42 0 -7
-42 c-4 -24 -9 -61 -13 -83 -8 -49 -33 -75 -120 -121 -61 -33 -143 -28 -143 9
0 25 -30 124 -53 178 -22 50 -109 127 -154 135 -19 4 -78 4 -131 2 -84 -5
-107 -10 -172 -40 -180 -84 -282 -207 -353 -428 -18 -57 -21 -93 -23 -310 l-2
-245 -38 -17 c-45 -20 -88 -23 -132 -7 -50 17 -57 55 -37 202 9 67 21 142 26
166 24 104 39 295 29 347 -11 54 -68 152 -97 167 -10 6 -27 18 -38 27 -11 10
-46 25 -77 35 -54 17 -60 17 -130 0 -40 -10 -90 -29 -110 -42 -21 -12 -41 -23
-46 -23 -5 0 -24 -13 -42 -30 -34 -31 -50 -37 -50 -21 0 19 21 169 35 251 21
122 47 331 42 337 -8 7 -196 -28 -308 -57 -35 -10 -36 -11 -47 -77 -19 -111
-54 -372 -63 -468 -5 -49 -13 -109 -19 -132 -13 -52 -28 -158 -45 -298 -7 -60
-21 -166 -33 -235 -38 -234 -65 -440 -59 -447 7 -6 327 14 334 21 5 5 32 174
48 306 8 63 19 142 25 175 5 33 17 116 26 185 8 69 23 168 33 220 17 93 18 95
59 123 25 17 61 30 90 34 46 5 51 3 84 -30 23 -22 37 -48 41 -73 10 -62 -8
-225 -48 -434 -12 -58 -16 -121 -13 -200 3 -105 5 -118 29 -153 47 -68 95 -95
188 -106 99 -13 155 -2 219 40 24 16 47 29 52 29 5 0 17 10 27 23 11 12 34 35
51 52 l32 29 45 -51 c62 -71 128 -97 250 -97 149 -1 269 57 367 174 51 61 113
173 128 230 57 222 60 235 60 294 0 59 3 63 70 91 44 19 94 49 135 80 10 8 23
15 27 15 10 0 1 -88 -13 -135 -4 -16 -14 -73 -20 -125 -6 -52 -13 -98 -15
-102 -2 -3 -5 -67 -5 -140 -1 -145 3 -164 57 -225 16 -18 47 -40 68 -49 54
-22 173 -30 231 -15 50 13 140 70 202 129 22 20 51 48 65 60 l26 24 34 -59
c24 -41 51 -70 92 -98 58 -40 58 -40 154 -40 86 0 104 3 157 29 33 16 73 39
88 52 36 30 47 30 47 0 0 -44 -17 -73 -52 -85 -18 -7 -49 -22 -69 -32 -20 -10
-50 -26 -65 -34 -50 -25 -144 -115 -166 -158 -44 -84 -24 -233 38 -288 54 -48
106 -64 204 -64 68 1 104 5 125 17 17 9 45 22 63 28 55 21 137 111 174 192 33
70 39 97 73 302 8 49 16 90 17 91 2 2 32 18 68 36 82 41 146 83 189 126 19 18
38 32 42 31 4 -2 22 -23 40 -47 19 -24 56 -55 83 -69 43 -23 62 -26 147 -26
89 0 100 2 136 27 22 15 43 27 49 27 5 0 45 34 89 75 44 41 85 74 91 75 6 0
17 -12 23 -28 15 -35 64 -88 101 -107 36 -19 161 -30 224 -21 45 7 147 67 196
116 36 36 50 26 43 -27 -10 -76 -10 -78 12 -76 11 0 87 4 168 8 145 7 148 8
158 32 5 13 9 43 9 66 1 37 18 166 49 357 6 36 18 124 26 195 9 72 21 155 27
185 6 30 13 79 17 109 7 63 28 84 107 104 65 17 108 4 141 -43 19 -28 23 -47
22 -105 0 -38 -5 -92 -10 -120 -5 -27 -14 -92 -19 -144 -5 -52 -15 -120 -22
-150 -6 -31 -12 -101 -12 -156 0 -118 23 -183 79 -228 49 -39 77 -47 163 -47
110 0 163 33 212 130 45 89 44 94 -17 91 -45 -2 -56 1 -78 23 -27 27 -30 53
-15 126 5 25 21 126 35 225 14 99 30 214 37 255 l11 75 -35 76 c-25 52 -50 87
-83 117 -48 42 -136 82 -180 82 -54 0 -213 -73 -279 -127 -16 -13 -30 -22 -33
-19 -2 2 0 27 5 55 5 28 6 54 1 56 -8 5 -330 -13 -336 -19 -2 -2 -15 -88 -28
-192 -14 -104 -32 -229 -40 -279 -8 -49 -22 -144 -30 -210 -28 -232 -28 -232
-68 -269 -38 -35 -72 -46 -141 -46 -51 0 -82 20 -89 57 -6 30 16 254 32 325 5
24 21 135 35 248 14 113 30 221 36 240 5 19 10 52 10 74 l0 38 -87 -6 c-49 -3
-124 -8 -169 -12 l-81 -6 -17 -107 c-9 -58 -21 -133 -26 -166 -5 -33 -14 -96
-20 -140 -5 -44 -17 -123 -25 -175 -9 -52 -20 -135 -25 -185 -15 -138 -16
-141 -73 -182 -44 -33 -59 -38 -118 -41 -77 -5 -105 7 -114 47 -8 36 8 187 41
401 14 91 29 199 35 240 11 83 26 183 38 247 l8 43 -116 -6 c-64 -4 -141 -9
-171 -13 -55 -6 -55 -6 -63 -46 -5 -22 -12 -60 -18 -85 -5 -25 -21 -133 -34
-240 -14 -107 -32 -229 -40 -270 -8 -41 -14 -98 -15 -125 0 -61 -25 -112 -89
-178 -57 -59 -148 -132 -178 -141 -20 -6 -23 -4 -23 21 0 15 5 46 10 68 12 49
37 217 45 305 3 36 13 97 20 135 8 39 20 117 26 175 5 58 19 156 30 218 10 63
19 119 19 125 0 16 -331 1 -342 -16 -4 -6 -8 -29 -8 -49 0 -50 -16 -56 -50
-20 -16 18 -49 37 -83 48 -53 16 -59 16 -144 0 -127 -26 -221 -86 -310 -202
-30 -39 -89 -163 -103 -216 -7 -24 -18 -63 -25 -88 -18 -59 -40 -318 -31 -369
4 -30 2 -43 -9 -53 -9 -7 -24 -20 -33 -29 -48 -43 -77 -54 -150 -54 -126 0
-125 -13 -49 520 33 230 48 315 58 342 8 21 15 23 72 23 l64 0 7 38 c10 64 12
62 -64 62 -51 0 -70 4 -70 13 0 16 48 299 56 332 3 12 2 25 -3 27 -4 2 -39 -2
-78 -9z m865 -499 c38 -35 40 -39 40 -96 0 -32 -6 -91 -14 -131 -8 -40 -22
-135 -31 -212 -27 -225 -44 -293 -83 -333 -42 -41 -69 -52 -133 -52 -54 0 -79
10 -118 46 -25 23 -26 30 -30 154 -4 156 8 255 49 391 54 183 128 269 232 269
41 0 54 -5 88 -36z m-1713 -69 c13 -9 28 -34 35 -56 11 -40 11 -41 -20 -65
-42 -33 -62 -77 -62 -135 0 -67 15 -94 61 -109 38 -13 39 -15 39 -59 -1 -45
-18 -146 -39 -229 -18 -68 -81 -164 -121 -184 -49 -24 -127 -23 -167 2 -54 32
-67 77 -67 220 1 290 88 546 208 612 39 22 105 23 133 3z m1597 -1137 c-25
-150 -34 -173 -79 -220 -34 -36 -77 -37 -112 -2 -21 21 -25 32 -20 65 9 69 54
118 157 171 50 26 60 24 54 -14z"/>
<path d="M8795 2138 c-9 -45 -27 -101 -38 -115 -4 -6 -38 -14 -75 -18 -90 -9
-103 -13 -77 -27 11 -6 22 -14 25 -18 3 -3 21 -16 41 -28 60 -36 63 -43 45
-112 -28 -107 -23 -110 53 -45 51 44 83 55 96 35 3 -5 15 -10 25 -10 10 0 23
-6 27 -13 9 -13 63 -40 69 -34 4 4 -14 53 -43 116 -15 33 -15 33 23 72 21 21
43 39 50 39 11 0 24 21 24 41 0 5 -38 9 -84 9 -79 0 -85 1 -91 23 -15 46 -48
117 -55 117 -5 0 -11 -15 -15 -32z"/>
<path d="M7870 2088 c0 -7 -10 -43 -21 -80 l-21 -67 -50 -10 c-27 -6 -65 -11
-86 -11 l-36 0 34 -30 c19 -16 40 -30 45 -30 6 0 23 -11 39 -25 l29 -23 -17
-65 c-10 -36 -16 -73 -14 -82 3 -15 6 -14 29 6 81 73 100 82 136 67 15 -6 37
-19 48 -29 11 -9 30 -19 43 -22 21 -5 23 -3 17 25 -4 16 -16 50 -27 75 l-20
46 61 56 c34 31 61 59 61 62 0 3 -39 5 -87 5 l-86 -1 -30 73 c-27 65 -47 91
-47 60z"/>
<path d="M6925 1959 c-21 -83 -34 -99 -83 -99 -20 0 -54 -3 -75 -6 -31 -6 -35
-9 -25 -21 6 -8 25 -20 42 -28 17 -8 44 -25 59 -38 l28 -23 -16 -65 c-8 -35
-15 -72 -15 -82 0 -20 9 -15 94 56 19 15 39 27 45 27 11 0 61 -28 71 -41 3 -3
20 -11 38 -17 39 -13 41 -4 13 52 -24 46 -34 88 -23 101 4 6 31 30 60 54 28
23 52 47 52 52 0 6 -32 8 -77 4 -43 -2 -83 -2 -88 3 -11 7 -25 37 -45 89 -23
62 -35 58 -55 -18z"/>
<path d="M5404 1925 c-3 -8 -1 -76 5 -153 6 -76 11 -185 11 -243 0 -57 4 -110
9 -118 6 -10 19 -12 46 -7 l37 7 -7 110 -7 109 30 0 c41 0 62 -24 62 -68 0
-20 3 -61 7 -90 l6 -53 41 3 c31 2 40 7 37 18 -2 8 -7 55 -11 103 -7 72 -12
93 -31 113 -22 23 -22 24 -3 45 15 17 19 36 19 101 0 77 -1 80 -33 109 -31 27
-37 29 -122 29 -70 0 -92 -3 -96 -15z"/>
<path d="M4818 1903 c-72 -4 -78 -5 -78 -25 0 -12 7 -108 15 -213 8 -104 16
-215 17 -244 l3 -55 105 3 c58 1 108 5 112 7 5 3 8 20 8 39 l0 34 -77 3 -78 3
-3 69 c-3 80 1 86 71 86 42 0 47 2 47 23 0 37 -13 46 -70 49 l-55 3 0 70 0 70
65 5 65 5 3 38 3 37 -38 -2 c-21 -1 -73 -4 -115 -5z"/>
<path d="M4054 1845 c-3 -8 -1 -52 5 -97 6 -46 14 -159 17 -252 l7 -169 96 7
c92 6 97 8 124 38 25 30 27 39 27 118 0 47 -7 139 -15 205 -12 108 -16 122
-40 142 -23 20 -37 23 -121 23 -74 0 -96 -3 -100 -15z m165 -64 c15 -10 29
-145 30 -288 1 -78 -7 -90 -59 -89 -24 1 -25 4 -37 111 -6 61 -12 147 -12 193
l-1 82 33 0 c17 0 38 -4 46 -9z"/>
<path d="M3535 1821 c-3 -6 -1 -81 5 -168 6 -87 13 -202 16 -255 l6 -98 39 0
39 0 0 53 c0 28 -4 90 -9 137 -5 47 -13 142 -16 213 l-7 127 -33 0 c-19 0 -36
-4 -40 -9z"/>
<path d="M2882 1793 l-33 -4 6 -142 c11 -271 17 -364 24 -376 5 -7 23 -11 42
-9 l34 3 -3 103 c-4 111 1 121 49 104 22 -8 25 -17 34 -103 l10 -94 40 0 40 0
-1 45 c-1 91 -15 157 -36 180 -21 22 -21 24 -5 52 23 40 23 142 -1 188 -27 56
-75 68 -200 53z"/>
<path d="M9065 1570 c-60 -4 -166 -8 -235 -9 -69 -1 -165 -8 -215 -16 -49 -8
-124 -15 -165 -15 -41 0 -140 -7 -220 -15 -80 -8 -203 -15 -273 -15 -71 0
-158 -4 -195 -10 -63 -9 -152 -15 -612 -40 -192 -10 -367 -23 -555 -41 -60 -5
-191 -14 -290 -19 -405 -22 -701 -40 -726 -45 -14 -3 -120 -10 -235 -15 -115
-5 -292 -16 -394 -24 -300 -24 -454 -35 -650 -46 -102 -6 -230 -14 -285 -20
-55 -5 -242 -16 -415 -25 -173 -8 -355 -20 -405 -26 -49 -6 -145 -14 -213 -18
-68 -4 -127 -12 -134 -19 -6 -6 -17 -44 -25 -84 -22 -111 -25 -103 37 -100
477 22 692 35 825 47 187 17 295 24 460 29 135 5 523 30 720 47 72 6 211 15
310 19 254 12 511 28 640 41 61 6 214 15 340 19 127 5 275 14 330 19 55 6 197
15 315 20 235 12 466 27 630 41 58 5 193 14 300 20 269 14 521 30 670 41 250
20 387 28 501 28 105 1 119 3 143 24 142 120 215 185 225 200 13 19 2 20 -204
7z"/>
</g>
</svg>
